<svg width="20" height="16" viewBox="0 0 20 16" fill="none" xmlns="http://www.w3.org/2000/svg">
<path fill-rule="evenodd" clip-rule="evenodd" d="M15.8336 15.5C17.6745 15.5 19.1669 14.0076 19.1669 12.1667V4.68557C19.1672 4.67283 19.1672 4.66005 19.1669 4.64725V3.83333C19.1669 1.99238 17.6745 0.5 15.8336 0.5H4.16693C2.32598 0.5 0.833596 1.99238 0.833596 3.83333V4.64726C0.833299 4.66005 0.833301 4.67282 0.833596 4.68556V12.1667C0.833596 14.0076 2.32598 15.5 4.16693 15.5H15.8336ZM2.50026 12.1667C2.50026 13.0871 3.24645 13.8333 4.16693 13.8333H15.8336C16.7541 13.8333 17.5003 13.0871 17.5003 12.1667V5.89753L11.2382 8.40234C10.4435 8.72022 9.557 8.72022 8.76229 8.40234L2.50026 5.89753V12.1667ZM10.6192 6.85488L17.5003 4.10247V3.83333C17.5003 2.91286 16.7541 2.16667 15.8336 2.16667H4.16693C3.24645 2.16667 2.50026 2.91286 2.50026 3.83333V4.10247L9.38128 6.85488C9.77863 7.01382 10.2219 7.01382 10.6192 6.85488Z" fill="#667185"/>
</svg>
