<svg width="18" height="16" viewBox="0 0 18 16" fill="none" xmlns="http://www.w3.org/2000/svg">
<path d="M16.2558 0.744078C16.5812 1.06951 16.5812 1.59715 16.2558 1.92259L2.92243 15.2559C2.59699 15.5814 2.06935 15.5814 1.74391 15.2559C1.41848 14.9305 1.41848 14.4028 1.74391 14.0774L15.0772 0.744078C15.4027 0.418641 15.9303 0.418641 16.2558 0.744078Z" fill="#667185"/>
<path d="M12.1661 2.4767C11.2275 2.03469 10.1692 1.75 8.99982 1.75C6.54641 1.75 4.58214 3.00308 3.18616 4.33307C1.78698 5.66611 0.879089 7.14973 0.519703 7.7915C0.284185 8.21207 0.256135 8.71426 0.449458 9.16031C0.584469 9.47181 0.814073 9.95437 1.15249 10.5143C1.39053 10.9082 1.90282 11.0346 2.29671 10.7965C2.69061 10.5585 2.81695 10.0462 2.57891 9.65232C2.30672 9.20192 2.11784 8.81241 2.00328 8.55369C2.34141 7.95778 3.14221 6.67693 4.33581 5.53975C5.56871 4.36513 7.14153 3.41667 8.99982 3.41667C9.6682 3.41667 10.2997 3.53937 10.8916 3.75116L12.1661 2.4767Z" fill="#667185"/>
<path d="M13.7419 5.61491C14.8924 6.73288 15.6657 7.97087 15.9964 8.55369C15.8818 8.81241 15.6929 9.20192 15.4207 9.65232C15.1827 10.0462 15.309 10.5585 15.7029 10.7965C16.0968 11.0346 16.6091 10.9082 16.8472 10.5143C17.1856 9.95437 17.4152 9.47181 17.5502 9.1603C17.7435 8.71426 17.7155 8.21207 17.4799 7.7915C17.1298 7.16625 16.259 5.74193 14.9206 4.43629L13.7419 5.61491Z" fill="#667185"/>
<path d="M8.99984 4.66667C9.30268 4.66667 9.59798 4.69898 9.88248 4.76034L8.16762 6.47519C7.45638 6.7262 6.8927 7.28987 6.6417 8.00112L4.92684 9.71597C4.86548 9.43148 4.83317 9.13618 4.83317 8.83333C4.83317 6.53215 6.69865 4.66667 8.99984 4.66667Z" fill="#667185"/>
<path d="M8.99984 11.3333C8.70744 11.3333 8.42677 11.2831 8.16597 11.1909L6.9151 12.4418C7.52828 12.7968 8.24033 13 8.99984 13C11.301 13 13.1665 11.1345 13.1665 8.83333C13.1665 8.07382 12.9633 7.36177 12.6083 6.74859L11.3574 7.99947C11.4496 8.26027 11.4998 8.54094 11.4998 8.83333C11.4998 10.214 10.3805 11.3333 8.99984 11.3333Z" fill="#667185"/>
</svg>
